<svg xmlns="http://www.w3.org/2000/svg" width="1024" height="1024" viewBox="0 0 1024 1024">
<g>
<path d="M 0.00 0.00 L 1024.00 0.00 L 1024.00 1024.00 L 0.00 1024.00 ZM 849.26 554.49 C857.60,556.30 863.41,556.30 870.31,554.51 C894.36,548.24 908.88,525.98 905.24,500.96 C902.90,484.90 894.49,473.25 880.22,466.27 L 872.50 462.50 L 859.50 462.50 C846.63,462.50 846.43,462.54 838.93,466.11 C826.17,472.21 818.22,482.09 814.53,496.46 C807.88,522.33 823.82,548.96 849.26,554.49 ZM 747.26 554.55 C759.09,557.24 772.36,554.96 782.50,548.50 C804.54,534.46 810.67,503.06 795.73,480.83 C790.56,473.14 784.39,468.36 774.79,464.62 C767.95,461.95 766.79,461.81 755.84,462.19 C744.81,462.58 743.79,462.80 736.68,466.31 C727.31,470.94 720.95,477.29 716.45,486.47 C702.66,514.64 717.68,547.82 747.26,554.55 ZM 356.00 462.94 L 356.00 554.07 L 365.75 553.79 L 375.50 553.50 L 376.00 527.00 C376.34,508.98 376.82,500.98 377.49,502.00 C378.04,502.83 382.83,514.75 388.15,528.50 L 397.82 553.50 L 414.50 553.50 L 424.38 527.75 C429.82,513.59 434.65,502.00 435.12,502.00 C435.59,502.00 436.09,513.59 436.23,527.75 L 436.50 553.50 L 445.60 553.79 C452.45,554.00 454.98,553.73 455.86,552.67 C456.71,551.64 456.95,539.60 456.76,507.38 L 456.50 463.50 L 443.46 463.22 L 430.42 462.94 L 428.08 469.22 C426.80,472.68 425.14,477.08 424.40,479.00 C410.85,514.21 407.12,523.46 406.38,523.70 C405.90,523.85 400.28,510.37 393.91,493.74 L 382.31 463.50 L 369.16 463.22 ZM 284.37 665.01 C290.49,666.61 297.15,667.94 299.17,667.96 C303.97,668.01 308.09,664.55 310.83,658.17 C312.75,653.71 317.00,636.85 317.00,633.69 C317.00,632.46 305.52,623.52 302.39,622.32 C300.54,621.61 300.60,624.32 302.53,628.05 C303.36,629.67 303.82,631.00 303.55,631.00 C303.27,631.00 300.00,628.78 296.27,626.07 C284.08,617.21 280.72,616.55 234.00,614.00 C223.27,613.41 213.17,612.66 211.54,612.34 C209.91,612.01 204.73,608.80 200.04,605.21 C194.84,601.22 186.63,596.34 179.05,592.73 C172.21,589.47 165.19,585.72 163.46,584.40 C159.60,581.46 157.34,581.35 156.48,584.05 C155.33,587.68 160.31,592.93 169.90,598.20 C173.90,600.40 173.81,602.08 169.47,605.90 L 165.93 609.00 L 132.47 609.00 C100.33,609.00 98.92,609.08 97.00,611.00 C93.18,614.82 94.30,615.28 110.50,616.51 C121.93,617.37 142.53,621.36 164.50,626.97 C189.07,633.24 196.79,635.56 218.00,643.04 C253.18,655.44 273.50,662.17 284.37,665.01 ZM 66.68 592.34 C67.05,592.72 86.03,592.90 108.86,592.76 L 150.37 592.50 L 150.11 586.27 C149.89,580.77 150.15,579.76 152.38,577.52 C153.77,576.14 155.83,575.00 156.95,575.00 C158.94,575.00 159.00,574.47 159.00,556.58 C159.00,546.45 159.27,537.45 159.61,536.58 C160.16,535.15 155.74,535.00 114.14,535.00 C69.62,535.00 68.04,535.06 67.04,536.93 C65.88,539.09 65.55,591.21 66.68,592.34 ZM 473.70 553.37 C474.09,553.75 478.70,553.94 483.95,553.78 L 493.50 553.50 L 493.78 537.70 L 494.05 521.90 L 505.47 522.50 L 514.33 538.25 L 523.19 554.00 L 533.93 554.00 C539.84,554.00 544.92,553.75 545.23,553.43 C545.54,553.12 541.34,545.27 535.90,535.98 C530.45,526.69 526.00,518.65 526.00,518.11 C526.00,517.57 526.95,516.83 528.11,516.46 C531.40,515.42 537.92,509.06 540.31,504.57 C542.04,501.32 542.48,498.78 542.49,492.00 C542.50,484.44 542.17,482.91 539.54,478.15 C536.26,472.24 531.24,468.25 523.50,465.42 C519.35,463.90 514.64,463.53 495.75,463.21 L 473.00 462.84 L 473.00 507.75 C473.00,532.45 473.32,552.98 473.70,553.37 ZM 652.00 554.88 C659.60,556.10 661.66,556.13 668.18,555.06 C675.97,553.78 684.00,549.77 690.25,544.04 C695.33,539.37 702.84,528.50 701.74,527.40 C700.91,526.57 691.12,524.24 685.32,523.50 C680.36,522.86 680.08,522.95 678.66,525.67 C673.91,534.80 661.25,538.65 650.83,534.11 C639.90,529.36 633.96,515.14 636.93,500.85 C639.57,488.14 647.97,480.98 660.22,481.02 C668.01,481.04 673.09,483.65 677.88,490.12 L 681.26 494.67 L 691.31 492.53 C696.85,491.34 701.54,489.87 701.75,489.26 C702.91,485.78 693.73,474.07 685.85,468.98 C677.41,463.52 669.34,461.62 657.14,462.21 C648.34,462.63 646.32,463.10 639.64,466.27 C630.13,470.79 624.31,476.56 619.63,486.09 C610.40,504.92 613.23,526.28 626.93,541.24 C633.01,547.88 643.29,553.48 652.00,554.88 ZM 311.02 577.92 C314.58,580.11 317.88,581.93 318.34,581.95 C318.81,581.98 318.90,577.61 318.55,572.25 C315.67,528.56 312.70,519.43 298.17,509.68 C288.02,502.88 274.00,495.60 273.02,496.63 C269.87,499.94 256.33,529.66 257.46,530.79 C257.81,531.14 258.96,530.88 260.03,530.21 C261.10,529.55 262.20,529.00 262.49,529.00 C262.77,529.00 263.00,534.55 263.00,541.33 C263.00,552.98 264.49,565.00 265.93,565.00 C266.29,565.00 268.12,561.79 270.00,557.86 C271.87,553.93 273.56,551.19 273.76,551.77 C273.95,552.34 272.22,557.85 269.91,564.01 C266.47,573.18 265.96,575.36 267.11,576.09 C268.67,577.07 296.94,577.34 299.42,576.39 C300.29,576.06 301.00,574.93 301.00,573.89 C301.00,571.83 302.05,571.45 303.57,572.97 C304.11,573.51 307.46,575.73 311.02,577.92 ZM 176.96 462.31 C178.99,464.02 181.34,465.00 183.39,465.00 C186.11,465.00 186.90,464.44 188.30,461.50 C189.91,458.12 190.15,458.00 195.55,458.00 C200.64,458.00 201.43,458.31 204.44,461.50 C207.17,464.40 208.44,465.00 211.87,465.00 C215.18,465.00 216.76,464.31 219.85,461.52 C224.35,457.45 229.42,448.42 231.27,441.18 C232.29,437.21 233.34,435.58 236.04,433.79 C240.62,430.75 244.43,423.01 244.47,416.64 C244.52,407.83 239.31,408.09 235.33,417.11 C233.59,421.07 231.32,422.72 229.76,421.16 C229.27,420.67 228.17,417.24 227.33,413.55 C225.84,407.03 225.72,406.85 223.15,407.49 C221.69,407.86 219.15,408.76 217.50,409.50 C213.22,411.42 199.28,414.46 178.55,418.00 C168.68,419.68 160.43,421.24 160.21,421.46 C159.37,422.29 161.24,428.07 163.36,431.22 C164.57,433.02 166.58,438.21 167.82,442.75 C170.97,454.29 173.26,459.20 176.96,462.31 ZM 229.81 398.51 C230.28,398.68 230.73,398.84 231.16,398.99 C235.66,400.57 237.96,401.38 239.07,400.57 C240.24,399.72 240.11,397.10 239.85,391.74 C239.82,391.25 239.80,390.74 239.77,390.20 C239.07,375.40 235.79,369.66 223.91,362.44 C212.18,355.32 206.89,353.78 192.28,353.25 C179.41,352.78 178.95,352.84 174.59,355.39 C167.84,359.35 157.69,369.88 154.69,376.05 C152.73,380.07 151.86,383.79 151.37,390.25 C150.96,395.69 151.07,399.00 151.67,399.00 C152.21,399.00 154.64,398.33 157.07,397.52 C176.13,391.16 210.10,391.62 229.81,398.51 ZM 918.68 553.35 C919.06,553.72 932.44,553.91 948.43,553.76 L 977.50 553.50 L 977.79 544.77 L 978.08 536.04 L 958.79 535.77 L 939.50 535.50 L 939.24 499.25 L 938.98 463.00 L 918.00 463.00 L 918.00 507.83 C918.00,532.49 918.31,552.97 918.68,553.35 ZM 91.44 486.20 C93.98,488.54 95.09,488.92 97.97,488.43 C101.54,487.81 107.00,485.37 107.00,484.40 C107.00,484.09 105.43,477.36 103.50,469.43 C99.67,453.66 99.20,446.18 101.56,438.50 C103.56,431.95 103.64,423.41 101.73,418.86 C99.43,413.41 93.57,407.49 88.24,405.24 C81.82,402.52 72.18,401.37 71.46,403.23 C71.17,403.99 72.79,407.96 75.05,412.05 C80.17,421.33 82.00,425.64 82.00,428.37 C81.99,431.89 78.33,436.79 74.08,438.96 C67.48,442.33 65.28,441.76 58.94,435.10 C55.85,431.86 52.75,427.81 52.04,426.10 C49.33,419.56 46.00,424.57 46.00,435.18 C46.00,448.12 55.99,458.74 69.89,460.58 C76.83,461.50 79.56,463.87 81.65,470.79 C83.48,476.88 86.51,481.64 91.44,486.20 ZM 767.17 534.14 C759.00,537.64 747.60,535.69 741.15,529.69 C737.12,525.93 733.91,518.34 733.31,511.10 C731.80,493.20 741.70,481.00 757.71,481.00 C772.58,481.00 782.00,491.46 782.00,507.98 C782.00,520.17 776.30,530.23 767.17,534.14 ZM 869.36 533.96 C864.27,536.35 856.41,536.58 850.50,534.51 C844.88,532.54 838.74,525.48 836.53,518.45 C833.98,510.34 834.85,499.90 838.67,492.81 C845.15,480.80 861.38,477.18 873.32,485.09 C880.42,489.79 883.50,496.88 883.50,508.50 C883.49,515.98 883.10,518.26 881.16,522.00 C878.03,528.01 874.60,531.50 869.36,533.96 ZM 315.44 618.29 C320.32,622.03 324.67,624.73 325.09,624.29 C325.52,623.86 325.55,618.91 325.17,613.29 L 324.47 603.09 L 316.12 595.29 C311.53,591.01 307.03,587.19 306.13,586.82 C305.24,586.45 294.72,586.11 282.77,586.07 L 261.04 586.00 L 260.47 588.25 C260.16,589.49 260.04,594.11 260.20,598.50 L 260.50 606.50 L 295.00 607.05 L 295.06 602.77 L 295.11 598.50 L 297.31 601.49 C300.81,606.27 305.92,611.01 315.44,618.29 ZM 189.16 510.25 C191.91,515.06 194.49,519.00 194.90,519.00 C197.10,519.00 232.00,480.38 232.00,477.94 C232.00,475.67 229.84,460.63 229.45,460.17 C229.30,459.99 226.10,462.95 222.34,466.76 C213.28,475.92 208.31,478.70 198.55,480.06 C194.24,480.66 189.69,480.89 188.43,480.57 C186.78,480.16 185.99,480.49 185.62,481.75 C184.87,484.26 183.55,498.22 183.89,500.00 C184.05,500.83 186.42,505.44 189.16,510.25 ZM 198.00 595.46 C201.02,597.88 203.61,599.88 203.75,599.92 C203.89,599.97 204.00,590.09 204.00,577.98 L 204.00 555.96 L 165.50 556.50 L 165.50 579.50 L 179.00 585.29 C187.40,588.89 194.58,592.74 198.00,595.46 ZM 144.00 417.42 C144.00,419.19 171.28,415.67 193.83,411.00 C205.07,408.67 224.09,403.22 225.41,401.95 C226.87,400.56 221.38,398.89 210.50,397.41 C197.75,395.67 185.04,395.67 173.00,397.42 C162.21,398.98 158.51,400.20 155.14,403.32 C152.51,405.75 144.00,416.52 144.00,417.42 ZM 56.17 603.25 C58.06,604.87 62.07,605.00 108.61,605.00 C156.60,605.00 159.00,604.91 159.00,603.19 C159.00,602.19 157.73,600.16 156.19,598.68 L 153.37 595.98 L 103.44 596.24 L 53.50 596.50 L 53.81 599.00 C53.98,600.38 55.04,602.29 56.17,603.25 ZM 183.50 544.99 C186.80,545.39 197.25,545.79 206.71,545.86 C222.79,545.99 224.00,545.87 224.96,544.07 C226.71,540.80 226.21,538.09 223.75,537.51 C203.30,532.76 191.60,531.00 180.34,531.00 L 168.17 531.00 L 169.23 534.25 C171.43,541.07 172.05,542.07 174.74,543.15 C176.26,543.75 180.20,544.58 183.50,544.99 ZM 515.75 503.38 C513.64,504.92 510.99,505.48 504.25,505.79 C499.44,506.02 495.16,505.86 494.75,505.43 C494.34,505.01 494.00,499.29 494.00,492.72 L 494.00 480.77 L 503.97 481.17 C515.56,481.63 518.61,483.16 520.91,489.67 C522.19,493.30 522.15,494.02 520.41,497.52 C519.36,499.64 517.26,502.27 515.75,503.38 ZM 241.82 529.12 C246.62,530.78 248.00,530.70 248.00,528.78 C248.00,527.02 264.91,493.99 267.65,490.40 L 270.13 487.13 L 267.82 485.64 C264.56,483.54 260.07,481.60 259.59,482.09 C256.62,485.13 235.59,525.92 236.51,526.86 C236.86,527.21 239.25,528.23 241.82,529.12 ZM 87.43 515.24 L 87.56 515.34 C92.22,518.98 93.57,520.04 94.55,519.76 C94.96,519.65 95.31,519.29 95.80,518.80 C98.21,516.39 97.11,513.18 92.71,509.80 C81.04,500.83 74.00,494.44 74.00,492.80 C74.00,491.81 74.41,491.00 74.91,491.00 C75.41,491.00 79.47,494.15 83.93,498.00 C88.39,501.85 92.34,505.00 92.69,505.00 C93.82,505.00 97.00,501.74 97.00,500.57 C97.00,498.55 79.56,482.00 77.42,482.00 C75.00,482.00 66.99,492.35 67.01,495.46 C67.02,497.58 76.22,506.50 87.43,515.24 ZM 669.50 606.17 C669.77,606.44 671.01,606.59 672.25,606.50 C674.23,606.36 674.54,605.72 674.80,601.17 C675.20,594.44 677.14,594.37 680.49,600.98 C682.24,604.44 683.80,606.16 685.58,606.61 C689.71,607.65 690.15,605.89 687.06,600.61 L 684.21 595.72 L 686.83 593.47 C690.11,590.65 690.49,584.30 687.57,581.08 C685.95,579.29 684.53,579.00 677.35,579.00 L 669.00 579.00 L 669.00 592.33 C669.00,599.67 669.22,605.89 669.50,606.17 ZM 228.84 503.41 C231.17,506.48 233.66,509.00 234.38,509.00 C235.10,509.00 238.35,503.71 241.60,497.25 C247.23,486.03 247.50,485.16 247.50,478.00 C247.50,470.30 245.88,464.55 243.44,463.62 C241.35,462.82 240.72,464.68 241.45,469.51 C242.27,474.98 240.39,478.87 232.33,488.38 C229.12,492.16 226.08,495.84 225.56,496.54 C224.91,497.43 225.90,499.51 228.84,503.41 ZM 134.00 520.05 C134.00,520.57 136.67,521.00 139.93,521.00 C144.72,521.00 145.97,520.66 146.38,519.25 C154.15,493.06 157.07,482.74 156.78,482.45 C156.59,482.25 154.07,482.78 151.20,483.63 C144.95,485.46 144.61,486.01 139.56,502.50 C137.54,509.10 135.46,515.53 134.94,516.80 C134.42,518.06 134.00,519.52 134.00,520.05 ZM 241.00 581.50 C241.00,583.97 241.45,586.00 242.00,586.00 C242.55,586.00 243.00,584.48 243.00,582.63 C243.00,579.10 245.55,563.33 246.54,560.76 C247.03,559.49 245.01,559.19 233.31,558.77 C225.71,558.50 219.35,558.40 219.18,558.54 C218.55,559.07 228.27,575.54 230.80,578.25 C233.87,581.53 237.95,581.92 238.71,579.00 C239.65,575.42 241.00,576.89 241.00,581.50 ZM 557.88 551.12 C562.38,555.62 566.63,556.22 571.43,553.05 C575.30,550.50 576.92,547.39 576.96,542.44 C577.02,536.05 572.44,532.00 565.18,532.00 C561.53,532.00 560.23,532.57 557.40,535.40 C554.61,538.19 554.00,539.55 554.00,543.02 C554.00,546.58 554.60,547.84 557.88,551.12 ZM 97.00 528.55 C97.00,528.80 100.60,529.00 105.00,529.00 C109.73,529.00 113.00,528.59 113.00,527.99 C113.00,527.43 112.05,523.72 110.89,519.74 C107.49,508.08 107.47,507.42 110.44,503.89 C114.16,499.47 117.25,493.09 116.55,491.28 C115.84,489.42 112.21,489.99 104.94,493.12 C100.99,494.82 100.06,495.64 100.66,496.90 C101.30,498.23 101.47,503.04 101.11,509.25 C101.06,509.94 101.28,512.30 101.58,514.50 C102.01,517.60 101.56,519.58 99.57,523.30 C98.16,525.94 97.00,528.31 97.00,528.55 ZM 469.00 605.18 C469.00,605.63 470.34,606.00 471.98,606.00 C474.33,606.00 475.10,605.47 475.59,603.50 C476.16,601.22 476.69,601.00 481.63,601.00 C486.49,601.00 487.15,601.26 488.00,603.50 C488.72,605.41 489.67,606.00 491.98,606.00 C493.64,606.00 495.00,605.81 495.00,605.59 C495.00,605.36 493.61,601.42 491.90,596.84 C490.20,592.25 488.10,586.55 487.23,584.16 C485.63,579.75 482.50,577.49 479.55,578.62 C478.74,578.93 477.11,581.73 475.92,584.84 C472.79,593.09 469.00,604.22 469.00,605.18 ZM 183.97 456.25 C183.95,456.94 183.33,458.29 182.60,459.26 C180.95,461.44 179.57,460.07 178.53,455.21 C177.55,450.65 179.90,447.39 185.25,445.89 C190.12,444.52 208.43,444.62 211.06,446.03 C213.24,447.20 214.24,458.56 212.29,460.17 C210.74,461.46 209.11,460.42 207.96,457.40 C207.07,455.06 206.77,455.00 195.52,455.00 C186.99,455.00 183.99,455.32 183.97,456.25 ZM 520.96 604.75 C523.42,605.99 525.89,607.00 526.46,606.99 C530.19,606.97 535.27,604.46 538.12,601.23 L 541.40 597.50 L 537.76 597.19 C535.13,596.97 533.54,597.46 532.06,598.94 C527.23,603.77 520.00,599.81 520.00,592.33 C520.00,586.93 522.58,584.00 527.35,584.00 C529.42,584.00 531.38,584.76 532.50,586.00 C534.51,588.22 540.00,588.75 540.00,586.72 C540.00,584.61 537.07,581.09 533.99,579.49 C529.98,577.42 524.11,577.63 520.24,579.99 C510.36,586.02 510.75,599.60 520.96,604.75 ZM 795.27 605.04 C800.45,607.39 801.88,607.43 806.92,605.42 C810.62,603.94 814.00,600.41 814.00,598.04 C814.00,596.21 808.08,596.92 806.00,599.00 C802.97,602.03 798.67,601.58 795.59,597.92 C792.49,594.24 792.34,591.60 794.99,587.25 C796.70,584.45 797.53,584.00 801.00,584.00 C803.78,584.00 805.55,584.61 806.73,586.00 C808.85,588.48 814.00,588.74 814.00,586.37 C814.00,585.47 812.39,583.22 810.43,581.37 C807.42,578.53 806.12,578.00 802.18,578.00 C786.36,578.02 781.10,598.60 795.27,605.04 ZM 592.00 606.30 C598.11,608.52 606.00,603.66 606.00,597.66 C606.00,594.94 602.24,591.59 597.37,589.96 C593.35,588.61 592.50,587.91 592.50,585.93 C592.50,582.69 595.54,582.22 598.50,585.00 C603.25,589.46 607.23,585.14 602.61,580.52 C598.84,576.75 591.90,576.94 587.92,580.92 C586.26,582.59 585.00,584.92 585.00,586.33 C585.00,589.31 589.63,593.54 593.91,594.48 C597.44,595.25 599.45,597.39 598.63,599.51 C597.61,602.19 594.83,602.51 592.93,600.17 C590.96,597.73 585.00,597.09 585.00,599.31 C585.00,600.78 589.68,605.45 592.00,606.30 ZM 876.68 596.34 C877.05,596.71 899.43,596.90 926.41,596.76 C972.22,596.52 975.50,596.38 975.81,594.75 C976.13,593.10 973.22,593.00 926.07,593.00 C885.01,593.00 876.00,593.24 876.00,594.33 C876.00,595.07 876.30,595.97 876.68,596.34 ZM 356.00 595.01 C356.00,597.00 356.50,597.02 402.74,596.76 C446.33,596.52 449.50,596.38 449.81,594.75 C450.13,593.10 447.37,593.00 403.07,593.00 C356.59,593.00 356.00,593.03 356.00,595.01 ZM 718.02 604.03 C718.75,605.41 720.11,606.00 722.54,606.00 C724.44,606.00 726.00,605.85 726.00,605.66 C726.00,605.48 728.21,599.40 730.90,592.16 L 735.80 579.00 L 732.48 579.00 C729.18,579.00 729.15,579.04 726.00,588.50 C724.26,593.72 722.52,598.00 722.13,598.00 C721.74,598.00 720.09,593.73 718.46,588.51 C715.52,579.08 715.48,579.02 712.25,579.01 C710.46,579.00 709.00,579.19 709.00,579.42 C709.00,580.28 717.01,602.15 718.02,604.03 ZM 837.00 579.00 L 837.00 606.00 L 845.57 606.00 C853.88,606.00 854.13,605.93 853.82,603.75 C853.54,601.79 852.82,601.46 848.25,601.20 C843.17,600.91 843.00,600.80 843.00,597.95 C843.00,595.08 843.13,595.00 848.00,595.00 C852.64,595.00 853.00,594.82 853.00,592.55 C853.00,590.35 852.54,590.08 848.25,589.80 C843.93,589.53 843.47,589.26 843.19,586.80 C842.89,584.21 843.07,584.10 848.19,583.80 C852.83,583.54 853.54,583.21 853.82,581.25 C854.13,579.07 853.88,579.00 845.57,579.00 ZM 629.00 579.00 L 629.00 606.00 L 637.00 606.00 C644.87,606.00 645.00,605.96 645.00,603.50 C645.00,601.17 644.67,601.00 640.00,601.00 C635.13,601.00 635.00,600.92 635.00,598.05 C635.00,595.25 635.23,595.09 639.75,594.80 C643.76,594.55 644.55,594.16 644.81,592.31 C645.09,590.34 644.62,590.08 640.31,589.81 C635.92,589.53 635.47,589.26 635.19,586.80 C634.89,584.21 635.08,584.10 640.11,583.80 C644.72,583.54 645.36,583.23 645.50,581.25 C645.66,579.08 645.36,579.00 637.33,579.00 ZM 214.24 524.09 C225.97,526.52 226.56,526.47 227.96,523.09 C229.04,520.49 228.83,519.58 225.93,514.34 C224.15,511.13 221.99,507.42 221.13,506.10 L 219.57 503.70 L 211.84 512.10 C207.02,517.34 204.47,520.86 205.05,521.44 C205.57,521.96 209.70,523.16 214.24,524.09 ZM 76.82 522.14 C80.84,525.36 84.71,528.00 85.41,528.00 C87.03,528.00 90.32,524.43 89.85,523.18 C89.27,521.61 66.90,501.53 65.35,501.17 C63.15,500.66 61.00,502.94 61.00,505.78 C61.00,508.58 64.78,512.49 76.82,522.14 ZM 162.67 519.33 C163.03,519.70 168.21,520.00 174.17,520.00 C182.20,520.00 184.98,519.68 184.94,518.75 C184.86,517.07 175.64,502.71 174.38,502.29 C173.83,502.11 170.82,503.79 167.69,506.04 C162.29,509.90 162.00,510.33 162.00,514.39 C162.00,516.74 162.30,518.97 162.67,519.33 ZM 126.14 565.00 L 125.50 569.50 L 100.50 569.68 C86.75,569.78 74.94,569.63 74.25,569.35 C73.56,569.06 73.00,567.97 73.00,566.92 C73.00,565.08 74.05,565.00 99.57,565.00 ZM 164.53 491.25 C164.07,496.95 164.17,500.00 164.83,500.00 C165.39,500.00 167.79,498.50 170.17,496.66 C173.14,494.38 174.39,492.73 174.14,491.41 C173.94,490.36 173.83,484.40 173.88,478.17 C173.99,466.06 173.25,464.68 169.87,470.73 C166.85,476.13 165.26,482.25 164.53,491.25 ZM 120.47 519.95 C123.32,525.45 124.98,523.64 129.11,510.53 C131.19,503.94 132.74,498.41 132.55,498.22 C132.37,498.03 129.68,498.62 126.58,499.52 C119.26,501.65 117.53,504.13 118.28,511.42 C118.58,514.37 119.57,518.20 120.47,519.95 ZM 124.50 552.50 L 125.14 557.00 L 100.13 557.00 C86.37,557.00 74.90,556.64 74.62,556.20 C74.35,555.76 74.48,554.83 74.92,554.14 C75.51,553.17 81.63,552.82 100.10,552.68 ZM 231.25 549.78 C234.34,551.27 238.55,551.26 239.76,549.75 C240.74,548.52 244.00,538.13 244.00,536.21 C244.00,535.06 236.40,533.00 232.16,533.00 C230.46,533.00 228.97,533.64 228.64,534.50 C228.32,535.33 228.39,536.01 228.78,536.02 C231.50,536.07 232.00,537.76 230.52,541.95 C228.51,547.64 228.59,548.50 231.25,549.78 ZM 126.00 561.00 C126.00,562.95 125.33,563.00 99.50,563.00 C73.67,563.00 73.00,562.95 73.00,561.00 C73.00,559.05 73.67,559.00 99.50,559.00 C125.33,559.00 126.00,559.05 126.00,561.00 ZM 122.00 549.70 C122.00,550.73 117.38,551.00 100.00,551.00 C82.62,551.00 78.00,550.73 78.00,549.70 C78.00,546.38 80.28,546.00 100.00,546.00 C119.72,546.00 122.00,546.38 122.00,549.70 ZM 124.02 574.48 C122.95,575.76 119.11,576.00 99.48,576.00 C75.56,576.00 75.00,575.91 75.00,572.17 C75.00,571.46 124.14,571.81 124.86,572.53 C125.09,572.76 124.72,573.64 124.02,574.48 ZM 757.00 579.00 L 757.00 606.00 L 763.00 606.00 L 763.00 579.00 ZM 208.00 554.44 C209.59,555.39 213.20,555.94 217.92,555.96 L 225.35 556.00 L 220.65 551.00 L 192.83 551.00 C174.94,551.00 165.00,551.36 165.00,552.00 C165.00,552.99 179.28,553.49 197.00,553.13 C202.99,553.01 206.24,553.40 208.00,554.44 ZM 66.49 527.63 C69.93,529.95 72.62,531.00 75.18,531.00 C81.29,531.00 81.12,529.41 74.50,524.56 C72.30,522.96 68.81,520.15 66.75,518.32 C62.18,514.28 59.29,514.01 58.40,517.54 C57.63,520.61 59.43,522.85 66.49,527.63 ZM 120.50 580.00 C118.81,581.86 117.42,582.00 100.00,582.00 C82.58,582.00 81.19,581.86 79.50,580.00 C77.70,578.01 77.75,578.00 100.00,578.00 C122.25,578.00 122.30,578.01 120.50,580.00 ZM 116.00 543.19 C116.00,543.63 108.77,544.00 99.94,544.00 C83.33,544.00 81.42,543.39 88.59,540.40 C93.43,538.37 107.99,538.55 112.47,540.69 C114.41,541.61 116.00,542.74 116.00,543.19 ZM 109.14 587.98 C101.55,590.09 89.22,588.64 85.84,585.25 C84.85,584.25 87.67,584.00 99.92,584.00 C113.35,584.00 115.09,584.18 114.01,585.48 C113.34,586.30 111.14,587.42 109.14,587.98 ZM 125.00 528.55 C125.00,528.83 131.86,528.93 140.25,528.78 C153.02,528.54 155.50,528.26 155.50,527.00 C155.50,524.72 132.26,524.30 128.01,526.49 C126.35,527.35 125.00,528.28 125.00,528.55 ZM 130.00 629.50 C130.00,631.96 130.13,632.00 138.00,632.00 C142.40,632.00 146.00,631.82 146.00,631.59 C146.00,630.94 133.81,627.00 131.81,627.00 C130.55,627.00 130.00,627.76 130.00,629.50 ZM 71.50 611.27 C81.31,612.24 86.76,611.99 88.00,610.50 C89.09,609.18 87.82,609.00 77.42,609.00 C70.09,609.00 65.96,609.35 66.55,609.93 C67.07,610.45 69.30,611.05 71.50,611.27 ZM 682.58 588.56 C682.07,590.56 681.34,591.00 678.48,591.00 C675.17,591.00 675.00,590.83 675.00,587.50 C675.00,584.18 675.18,584.00 678.44,584.00 C682.41,584.00 683.44,585.13 682.58,588.56 ZM 484.18 593.62 C484.42,595.01 483.81,595.58 481.84,595.81 C478.28,596.22 477.94,595.23 480.02,590.50 L 481.77 586.50 L 482.81 589.12 C483.39,590.57 484.00,592.59 484.18,593.62 ZM 253.53 565.25 C252.34,568.04 254.55,567.27 255.84,564.45 C257.19,561.49 257.42,550.62 256.12,551.42 C255.64,551.72 255.03,554.56 254.76,557.73 C254.50,560.91 253.94,564.29 253.53,565.25 ZM 245.51 539.02 C245.86,539.58 246.56,539.77 247.07,539.46 C248.38,538.65 248.23,535.00 246.89,535.00 C246.28,535.00 246.05,535.67 246.36,536.50 C246.68,537.33 246.47,538.00 245.91,538.00 C245.34,538.00 245.16,538.46 245.51,539.02 ZM 252.00 569.50 C252.00,570.33 252.45,571.00 253.00,571.00 C253.55,571.00 254.00,570.33 254.00,569.50 C254.00,568.67 253.55,568.00 253.00,568.00 C252.45,568.00 252.00,568.67 252.00,569.50 Z" fill="rgb(3,43,91)"/>
<path d="M 311.02 577.92 C307.46,575.73 304.11,573.51 303.57,572.97 C302.05,571.45 301.00,571.83 301.00,573.89 C301.00,574.93 300.29,576.06 299.42,576.39 C296.94,577.34 268.67,577.07 267.11,576.09 C265.96,575.36 266.47,573.18 269.91,564.01 C272.22,557.85 273.95,552.34 273.76,551.77 C273.56,551.19 271.87,553.93 270.00,557.86 C268.12,561.79 266.29,565.00 265.93,565.00 C264.49,565.00 263.00,552.98 263.00,541.33 C263.00,534.55 262.77,529.00 262.49,529.00 C262.20,529.00 261.10,529.55 260.03,530.21 C258.96,530.88 257.81,531.14 257.46,530.79 C256.33,529.66 269.87,499.94 273.02,496.63 C274.00,495.60 288.02,502.88 298.17,509.68 C312.70,519.43 315.67,528.56 318.55,572.25 C318.90,577.61 318.81,581.98 318.34,581.95 C317.88,581.93 314.58,580.11 311.02,577.92 ZM 229.81 398.51 C210.10,391.62 176.13,391.16 157.07,397.52 C154.64,398.33 152.21,399.00 151.67,399.00 C151.07,399.00 150.96,395.69 151.37,390.25 C151.86,383.79 152.73,380.07 154.69,376.05 C157.69,369.88 167.84,359.35 174.59,355.39 C178.95,352.84 179.41,352.78 192.28,353.25 C206.89,353.78 212.18,355.32 223.91,362.44 C235.79,369.66 239.07,375.40 239.77,390.20 C239.80,390.74 239.82,391.25 239.85,391.74 C240.11,397.10 240.24,399.72 239.07,400.57 C237.96,401.38 235.66,400.57 231.16,398.99 C230.73,398.84 230.28,398.68 229.81,398.51 ZM 315.44 618.29 C305.92,611.01 300.81,606.27 297.31,601.49 L 295.11 598.50 L 295.06 602.77 L 295.00 607.05 L 260.50 606.50 L 260.20 598.50 C260.04,594.11 260.16,589.49 260.47,588.25 L 261.04 586.00 L 282.77 586.07 C294.72,586.11 305.24,586.45 306.13,586.82 C307.03,587.19 311.53,591.01 316.12,595.29 L 324.47 603.09 L 325.17 613.29 C325.55,618.91 325.52,623.86 325.09,624.29 C324.67,624.73 320.32,622.03 315.44,618.29 ZM 144.00 417.42 C144.00,416.52 152.51,405.75 155.14,403.32 C158.51,400.20 162.21,398.98 173.00,397.42 C185.04,395.67 197.75,395.67 210.50,397.41 C221.38,398.89 226.87,400.56 225.41,401.95 C224.09,403.22 205.07,408.67 193.83,411.00 C171.28,415.67 144.00,419.19 144.00,417.42 ZM 56.17 603.25 C55.04,602.29 53.98,600.38 53.81,599.00 L 53.50 596.50 L 103.44 596.24 L 153.37 595.98 L 156.19 598.68 C157.73,600.16 159.00,602.19 159.00,603.19 C159.00,604.91 156.60,605.00 108.61,605.00 C62.07,605.00 58.06,604.87 56.17,603.25 ZM 183.50 544.99 C180.20,544.58 176.26,543.75 174.74,543.15 C172.05,542.07 171.43,541.07 169.23,534.25 L 168.17 531.00 L 180.34 531.00 C191.60,531.00 203.30,532.76 223.75,537.51 C226.21,538.09 226.71,540.80 224.96,544.07 C224.00,545.87 222.79,545.99 206.71,545.86 C197.25,545.79 186.80,545.39 183.50,544.99 ZM 159.65 369.95 L 157.17 373.70 L 165.42 369.46 C176.39,363.81 186.69,361.55 197.92,362.31 C206.53,362.89 216.91,365.67 222.50,368.89 C230.12,373.27 230.92,372.25 224.75,366.02 C222.34,363.59 217.25,360.20 213.00,358.18 C205.90,354.81 204.83,354.60 192.93,354.20 C181.39,353.81 180.00,353.96 175.94,356.03 C170.08,359.02 162.72,365.31 159.65,369.95 ZM 228.84 503.41 C225.90,499.51 224.91,497.43 225.56,496.54 C226.08,495.84 229.12,492.16 232.33,488.38 C240.39,478.87 242.27,474.98 241.45,469.51 C240.72,464.68 241.35,462.82 243.44,463.62 C245.88,464.55 247.50,470.30 247.50,478.00 C247.50,485.16 247.23,486.03 241.60,497.25 C238.35,503.71 235.10,509.00 234.38,509.00 C233.66,509.00 231.17,506.48 228.84,503.41 ZM 214.24 524.09 C209.70,523.16 205.57,521.96 205.05,521.44 C204.47,520.86 207.02,517.34 211.84,512.10 L 219.57 503.70 L 221.13 506.10 C221.99,507.42 224.15,511.13 225.93,514.34 C228.83,519.58 229.04,520.49 227.96,523.09 C226.56,526.47 225.97,526.52 214.24,524.09 ZM 162.67 519.33 C162.30,518.97 162.00,516.74 162.00,514.39 C162.00,510.33 162.29,509.90 167.69,506.04 C170.82,503.79 173.83,502.11 174.38,502.29 C175.64,502.71 184.86,517.07 184.94,518.75 C184.98,519.68 182.20,520.00 174.17,520.00 C168.21,520.00 163.03,519.70 162.67,519.33 ZM 164.53 491.25 C165.26,482.25 166.85,476.13 169.87,470.73 C173.25,464.68 173.99,466.06 173.88,478.17 C173.83,484.40 173.94,490.36 174.14,491.41 C174.39,492.73 173.14,494.38 170.17,496.66 C167.79,498.50 165.39,500.00 164.83,500.00 C164.17,500.00 164.07,496.95 164.53,491.25 ZM 120.47 519.95 C119.57,518.20 118.58,514.37 118.28,511.42 C117.53,504.13 119.26,501.65 126.58,499.52 C129.68,498.62 132.37,498.03 132.55,498.22 C132.74,498.41 131.19,503.94 129.11,510.53 C124.98,523.64 123.32,525.45 120.47,519.95 ZM 91.44 486.20 C89.80,484.68 88.37,483.14 87.13,481.54 C87.67,482.03 88.12,482.20 88.41,481.91 C88.74,481.59 88.33,479.12 87.51,476.41 C86.69,473.71 86.02,470.99 86.01,470.36 C86.00,469.18 93.02,465.92 94.12,466.58 C94.47,466.79 95.98,471.47 97.49,476.98 C99.53,484.40 100.65,487.14 102.53,487.08 C101.01,487.68 99.35,488.19 97.97,488.43 C95.09,488.92 93.98,488.54 91.44,486.20 ZM 57.67 603.33 C58.75,604.41 72.00,604.11 72.00,603.00 C72.00,602.45 73.32,602.00 74.94,602.00 C76.56,602.00 78.16,602.45 78.50,603.00 C78.84,603.55 80.22,604.00 81.56,604.00 C82.90,604.00 84.00,603.55 84.00,603.00 C84.00,602.45 85.10,602.00 86.44,602.00 C87.78,602.00 89.13,601.60 89.43,601.11 C90.11,600.02 83.64,599.10 75.07,599.06 C71.49,599.05 68.34,598.55 67.96,597.94 C67.30,596.86 62.21,597.21 58.66,598.58 C57.00,599.21 56.40,602.07 57.67,603.33 ZM 206.89 553.94 C204.97,553.27 201.91,553.03 197.00,553.13 C179.28,553.49 165.00,552.99 165.00,552.00 C165.00,551.36 174.94,551.00 192.83,551.00 L 220.65 551.00 L 225.35 556.00 L 217.92 555.96 C217.67,555.96 217.42,555.96 217.17,555.96 C217.25,555.96 217.33,555.96 217.40,555.96 C224.25,556.00 224.29,555.98 222.50,554.00 C220.95,552.29 219.45,552.01 212.10,552.04 L 203.50 552.08 ZM 97.00 528.55 C97.00,528.31 98.16,525.94 99.57,523.30 C101.56,519.58 102.01,517.60 101.58,514.50 C101.47,513.69 101.37,512.86 101.29,512.10 C101.82,514.14 102.80,516.00 103.74,516.00 C105.59,516.00 105.29,517.21 102.56,520.92 C99.37,525.25 100.69,527.75 106.46,528.28 C108.06,528.43 109.74,528.59 110.81,528.71 C109.40,528.89 107.39,529.00 105.00,529.00 C100.60,529.00 97.00,528.80 97.00,528.55 ZM 253.53 565.25 C253.94,564.29 254.50,560.91 254.76,557.73 C255.03,554.56 255.64,551.72 256.12,551.42 C257.42,550.62 257.19,561.49 255.84,564.45 C254.55,567.27 252.34,568.04 253.53,565.25 ZM 245.51 539.02 C245.16,538.46 245.34,538.00 245.91,538.00 C246.47,538.00 246.68,537.33 246.36,536.50 C246.05,535.67 246.28,535.00 246.89,535.00 C248.23,535.00 248.38,538.65 247.07,539.46 C246.56,539.77 245.86,539.58 245.51,539.02 ZM 123.00 600.00 C123.00,600.55 123.93,601.00 125.06,601.00 C126.19,601.00 126.84,600.55 126.50,600.00 C126.16,599.45 125.23,599.00 124.44,599.00 C123.65,599.00 123.00,599.45 123.00,600.00 ZM 252.00 569.50 C252.00,568.67 252.45,568.00 253.00,568.00 C253.55,568.00 254.00,568.67 254.00,569.50 C254.00,570.33 253.55,571.00 253.00,571.00 C252.45,571.00 252.00,570.33 252.00,569.50 ZM 101.19 507.64 C101.40,503.07 101.30,499.43 100.91,497.68 C101.91,500.69 102.15,505.91 101.27,507.49 C101.24,507.53 101.21,507.59 101.19,507.64 ZM 105.01 485.98 C105.13,485.89 105.25,485.80 105.38,485.71 C106.86,484.63 106.94,483.80 104.55,473.79 C105.97,479.68 107.00,484.15 107.00,484.40 C107.00,484.77 106.20,485.36 105.01,485.98 ZM 82.49 473.27 C82.18,472.47 81.90,471.64 81.65,470.79 C80.98,468.59 80.25,466.85 79.34,465.47 C80.50,467.08 81.36,469.14 82.03,471.73 C82.16,472.23 82.31,472.75 82.49,473.27 ZM 71.41 460.82 C70.92,460.73 70.42,460.65 69.89,460.58 C63.94,459.79 58.70,457.39 54.66,453.89 C58.73,457.40 64.03,459.80 70.09,460.61 C70.55,460.67 70.98,460.74 71.41,460.82 ZM 112.88 528.18 C112.92,527.80 112.86,527.22 112.68,526.37 C112.88,527.21 113.00,527.79 113.00,527.99 C113.00,528.05 112.96,528.12 112.88,528.18 ZM 208.43 554.67 C209.24,554.99 210.13,555.24 211.12,555.44 C210.01,555.23 209.10,554.97 208.43,554.67 ZM 100.72 495.59 C101.19,494.90 102.48,494.18 104.94,493.12 C102.51,494.17 101.22,494.89 100.72,495.59 ZM 100.14 449.54 C100.00,445.38 100.49,441.97 101.56,438.50 C100.49,441.96 100.01,445.38 100.14,449.54 Z" fill="rgb(31,129,181)"/>
<path d="M 66.68 592.34 C65.55,591.21 65.88,539.09 67.04,536.93 C68.04,535.06 69.62,535.00 114.14,535.00 C155.74,535.00 160.16,535.15 159.61,536.58 C159.27,537.45 159.00,546.45 159.00,556.58 C159.00,574.47 158.94,575.00 156.95,575.00 C155.83,575.00 153.77,576.14 152.38,577.52 C150.15,579.76 149.89,580.77 150.11,586.27 L 150.37 592.50 L 108.86 592.76 C86.03,592.90 67.05,592.72 66.68,592.34 ZM 82.49 473.27 C82.31,472.75 82.16,472.23 82.03,471.73 C81.36,469.14 80.50,467.08 79.34,465.47 C77.61,462.84 75.23,461.52 71.41,460.82 L 71.41 460.82 C70.98,460.74 70.55,460.67 70.09,460.61 C64.03,459.80 58.74,457.40 54.66,453.89 L 54.66 453.89 C49.26,449.21 46.00,442.58 46.00,435.18 C46.00,424.57 49.33,419.56 52.04,426.10 C52.75,427.81 55.85,431.86 58.94,435.10 C65.28,441.76 67.48,442.33 74.08,438.96 C78.33,436.79 81.99,431.89 82.00,428.37 C82.00,425.64 80.17,421.33 75.05,412.05 C72.79,407.96 71.17,403.99 71.46,403.23 C72.18,401.37 81.82,402.52 88.24,405.24 C93.57,407.49 99.43,413.41 101.73,418.86 C103.64,423.41 103.56,431.95 101.56,438.50 C101.46,438.80 101.38,439.10 101.29,439.40 C100.41,442.56 100.02,445.74 100.14,449.54 C100.31,454.61 101.40,460.77 103.50,469.43 C103.87,470.94 104.22,472.40 104.55,473.79 L 104.55 473.79 C106.94,483.80 106.86,484.63 105.38,485.71 C105.25,485.80 105.13,485.89 105.01,485.98 C104.29,486.35 103.44,486.73 102.53,487.08 C100.65,487.14 99.53,484.40 97.49,476.98 C95.98,471.47 94.47,466.79 94.12,466.58 C93.02,465.92 86.00,469.18 86.01,470.36 C86.02,470.99 86.69,473.71 87.51,476.41 C88.33,479.12 88.74,481.59 88.41,481.91 C88.12,482.20 87.67,482.03 87.13,481.54 C85.15,479.00 83.64,476.30 82.49,473.27 ZM 284.37 665.01 C273.50,662.17 253.18,655.44 218.00,643.04 C196.79,635.56 189.07,633.24 164.50,626.97 C142.53,621.36 121.93,617.37 110.50,616.51 C104.83,616.08 101.00,615.74 98.59,615.33 C102.11,615.85 108.37,616.20 118.00,616.44 C128.07,616.70 135.10,617.43 141.00,618.85 C145.68,619.97 152.88,621.55 157.00,622.36 C161.12,623.17 172.82,625.69 183.00,627.96 C222.08,636.69 255.37,643.27 276.50,646.43 C297.58,649.59 300.47,649.62 303.43,646.66 C307.10,642.99 308.24,630.11 304.66,632.76 C302.85,634.10 301.80,633.75 296.47,630.00 C288.09,624.10 278.31,618.57 273.66,617.10 C271.92,616.54 257.90,615.39 242.50,614.52 C237.58,614.24 232.81,613.96 228.54,613.68 C230.32,613.79 232.15,613.89 234.00,614.00 C280.72,616.55 284.08,617.21 296.27,626.07 C300.00,628.78 303.27,631.00 303.55,631.00 C303.82,631.00 303.36,629.67 302.53,628.05 C300.60,624.32 300.54,621.61 302.39,622.32 C305.52,623.52 317.00,632.46 317.00,633.69 C317.00,636.85 312.75,653.71 310.83,658.17 C308.09,664.55 303.97,668.01 299.17,667.96 C297.15,667.94 290.49,666.61 284.37,665.01 ZM 198.00 595.46 C194.58,592.74 187.40,588.89 179.00,585.29 L 165.50 579.50 L 165.50 556.50 L 204.00 555.96 L 204.00 577.98 C204.00,590.09 203.89,599.97 203.75,599.92 C203.61,599.88 201.02,597.88 198.00,595.46 ZM 176.96 462.31 C173.26,459.20 170.97,454.29 167.82,442.75 C166.58,438.21 164.57,433.02 163.36,431.22 C161.24,428.07 159.37,422.29 160.21,421.46 C160.43,421.24 168.68,419.68 178.55,418.00 C182.86,417.26 186.87,416.55 190.57,415.86 C186.28,416.68 181.94,417.47 178.50,418.05 C171.35,419.26 165.14,420.57 164.71,420.96 C163.15,422.38 169.22,448.00 171.11,448.00 C171.60,448.00 172.00,448.68 172.00,449.52 C172.00,450.36 173.17,452.90 174.60,455.16 C176.52,458.20 177.43,458.93 178.04,457.94 C178.40,457.36 178.56,456.15 178.48,454.96 C178.49,455.05 178.51,455.13 178.53,455.21 C179.57,460.07 180.95,461.44 182.60,459.26 C183.01,458.72 183.39,458.05 183.64,457.45 L 183.40 458.75 C183.02,460.81 182.21,462.83 181.61,463.23 C180.02,464.29 185.21,464.15 186.88,463.09 C187.64,462.61 188.32,461.16 188.38,459.86 C188.49,457.64 188.93,457.48 195.50,457.23 C202.36,456.96 202.53,457.01 204.20,459.98 C205.14,461.64 206.33,463.00 206.84,463.00 C208.22,463.00 208.81,459.73 207.88,457.21 C207.84,457.09 207.79,456.98 207.75,456.87 C207.82,457.03 207.89,457.21 207.96,457.40 C209.11,460.42 210.74,461.46 212.29,460.17 C214.03,458.74 213.43,449.55 211.72,446.75 C213.62,447.95 214.00,449.99 214.00,453.69 C214.00,460.40 217.41,458.73 220.56,450.48 C221.98,446.75 222.18,444.09 221.67,435.72 C220.91,423.36 217.92,410.41 215.90,410.69 C215.30,410.77 211.71,411.51 207.20,412.47 C212.20,411.31 215.70,410.30 217.50,409.50 C219.15,408.76 221.69,407.86 223.15,407.49 C225.72,406.85 225.84,407.03 227.33,413.55 C228.17,417.24 229.27,420.67 229.76,421.16 C231.32,422.72 233.59,421.07 235.33,417.11 C239.31,408.09 244.52,407.83 244.47,416.64 C244.43,423.01 240.62,430.75 236.04,433.79 C233.34,435.58 232.29,437.21 231.27,441.18 C229.42,448.42 224.35,457.45 219.85,461.52 C216.76,464.31 215.18,465.00 211.87,465.00 C208.44,465.00 207.17,464.40 204.44,461.50 C201.43,458.31 200.64,458.00 195.55,458.00 C190.15,458.00 189.91,458.12 188.30,461.50 C186.90,464.44 186.11,465.00 183.39,465.00 C181.34,465.00 178.99,464.02 176.96,462.31 ZM 241.82 529.12 C239.25,528.23 236.86,527.21 236.51,526.86 C235.59,525.92 256.62,485.13 259.59,482.09 C260.07,481.60 264.56,483.54 267.82,485.64 L 270.13 487.13 L 267.65 490.40 C264.91,493.99 248.00,527.02 248.00,528.78 C248.00,530.70 246.62,530.78 241.82,529.12 ZM 205.31 509.09 C207.58,506.68 208.96,505.00 208.64,505.00 C208.19,505.00 210.37,502.10 213.48,498.57 L 219.13 492.13 L 216.81 490.68 C215.54,489.88 211.41,488.26 207.63,487.06 C203.84,485.87 198.89,484.06 196.63,483.04 C193.91,481.83 191.61,481.04 189.83,480.71 C191.83,480.76 195.26,480.51 198.55,480.06 C208.31,478.70 213.28,475.92 222.34,466.76 C226.10,462.95 229.30,459.99 229.45,460.17 C229.84,460.63 232.00,475.67 232.00,477.94 C232.00,479.58 216.32,497.47 205.31,509.09 ZM 159.65 369.95 C162.72,365.31 170.08,359.02 175.94,356.03 C180.00,353.96 181.39,353.81 192.93,354.20 C204.83,354.60 205.90,354.81 213.00,358.18 C217.25,360.20 222.34,363.59 224.75,366.02 C230.92,372.25 230.12,373.27 222.50,368.89 C216.91,365.67 206.53,362.89 197.92,362.31 C186.69,361.55 176.39,363.81 165.42,369.46 L 157.17 373.70 ZM 669.50 606.17 C669.22,605.89 669.00,599.67 669.00,592.33 L 669.00 579.00 L 677.35 579.00 C684.53,579.00 685.95,579.29 687.57,581.08 C690.49,584.30 690.11,590.65 686.83,593.47 L 684.21 595.72 L 687.06 600.61 C690.15,605.89 689.71,607.65 685.58,606.61 C683.80,606.16 682.24,604.44 680.49,600.98 C677.14,594.37 675.20,594.44 674.80,601.17 C674.54,605.72 674.23,606.36 672.25,606.50 C671.01,606.59 669.77,606.44 669.50,606.17 ZM 134.00 520.05 C134.00,519.52 134.42,518.06 134.94,516.80 C135.46,515.53 137.54,509.10 139.56,502.50 C144.61,486.01 144.95,485.46 151.20,483.63 C154.07,482.78 156.59,482.25 156.78,482.45 C157.07,482.74 154.15,493.06 146.38,519.25 C145.97,520.66 144.72,521.00 139.93,521.00 C136.67,521.00 134.00,520.57 134.00,520.05 ZM 241.00 581.50 C241.00,576.89 239.65,575.42 238.71,579.00 C237.95,581.92 233.87,581.53 230.80,578.25 C228.27,575.54 218.55,559.07 219.18,558.54 C219.35,558.40 225.71,558.50 233.31,558.77 C245.01,559.19 247.03,559.49 246.54,560.76 C245.55,563.33 243.00,579.10 243.00,582.63 C243.00,584.48 242.55,586.00 242.00,586.00 C241.45,586.00 241.00,583.97 241.00,581.50 ZM 469.00 605.18 C469.00,604.22 472.79,593.09 475.92,584.84 C477.11,581.73 478.74,578.93 479.55,578.62 C482.50,577.49 485.63,579.75 487.23,584.16 C488.10,586.55 490.20,592.25 491.90,596.84 C493.61,601.42 495.00,605.36 495.00,605.59 C495.00,605.81 493.64,606.00 491.98,606.00 C489.67,606.00 488.72,605.41 488.00,603.50 C487.15,601.26 486.49,601.00 481.63,601.00 C476.69,601.00 476.16,601.22 475.59,603.50 C475.10,605.47 474.33,606.00 471.98,606.00 C470.34,606.00 469.00,605.63 469.00,605.18 ZM 520.96 604.75 C510.75,599.60 510.36,586.02 520.24,579.99 C524.11,577.63 529.98,577.42 533.99,579.49 C537.07,581.09 540.00,584.61 540.00,586.72 C540.00,588.75 534.51,588.22 532.50,586.00 C531.38,584.76 529.42,584.00 527.35,584.00 C522.58,584.00 520.00,586.93 520.00,592.33 C520.00,599.81 527.23,603.77 532.06,598.94 C533.54,597.46 535.13,596.97 537.76,597.19 L 541.40 597.50 L 538.12 601.23 C535.27,604.46 530.19,606.97 526.46,606.99 C525.89,607.00 523.42,605.99 520.96,604.75 ZM 795.27 605.04 C781.10,598.60 786.36,578.02 802.18,578.00 C806.12,578.00 807.42,578.53 810.43,581.37 C812.39,583.22 814.00,585.47 814.00,586.37 C814.00,588.74 808.85,588.48 806.73,586.00 C805.55,584.61 803.78,584.00 801.00,584.00 C797.53,584.00 796.70,584.45 794.99,587.25 C792.34,591.60 792.49,594.24 795.59,597.92 C798.67,601.58 802.97,602.03 806.00,599.00 C808.08,596.92 814.00,596.21 814.00,598.04 C814.00,600.41 810.62,603.94 806.92,605.42 C801.88,607.43 800.45,607.39 795.27,605.04 ZM 592.00 606.30 C589.68,605.45 585.00,600.78 585.00,599.31 C585.00,597.09 590.96,597.73 592.93,600.17 C594.83,602.51 597.61,602.19 598.63,599.51 C599.45,597.39 597.44,595.25 593.91,594.48 C589.63,593.54 585.00,589.31 585.00,586.33 C585.00,584.92 586.26,582.59 587.92,580.92 C591.90,576.94 598.84,576.75 602.61,580.52 C607.23,585.14 603.25,589.46 598.50,585.00 C595.54,582.22 592.50,582.69 592.50,585.93 C592.50,587.91 593.35,588.61 597.37,589.96 C602.24,591.59 606.00,594.94 606.00,597.66 C606.00,603.66 598.11,608.52 592.00,606.30 ZM 718.02 604.03 C717.01,602.15 709.00,580.28 709.00,579.42 C709.00,579.19 710.46,579.00 712.25,579.01 C715.48,579.02 715.52,579.08 718.46,588.51 C720.09,593.73 721.74,598.00 722.13,598.00 C722.52,598.00 724.26,593.72 726.00,588.50 C729.15,579.04 729.18,579.00 732.48,579.00 L 735.80 579.00 L 730.90 592.16 C728.21,599.40 726.00,605.48 726.00,605.66 C726.00,605.85 724.44,606.00 722.54,606.00 C720.11,606.00 718.75,605.41 718.02,604.03 ZM 837.00 579.00 L 845.57 579.00 C853.88,579.00 854.13,579.07 853.82,581.25 C853.54,583.21 852.83,583.54 848.19,583.80 C843.07,584.10 842.89,584.21 843.19,586.80 C843.47,589.26 843.93,589.53 848.25,589.80 C852.54,590.08 853.00,590.35 853.00,592.55 C853.00,594.82 852.64,595.00 848.00,595.00 C843.13,595.00 843.00,595.08 843.00,597.95 C843.00,600.80 843.17,600.91 848.25,601.20 C852.82,601.46 853.54,601.79 853.82,603.75 C854.13,605.93 853.88,606.00 845.57,606.00 L 837.00 606.00 ZM 629.00 579.00 L 637.33 579.00 C645.36,579.00 645.66,579.08 645.50,581.25 C645.36,583.23 644.72,583.54 640.11,583.80 C635.08,584.10 634.89,584.21 635.19,586.80 C635.47,589.26 635.92,589.53 640.31,589.81 C644.62,590.08 645.09,590.34 644.81,592.31 C644.55,594.16 643.76,594.55 639.75,594.80 C635.23,595.09 635.00,595.25 635.00,598.05 C635.00,600.92 635.13,601.00 640.00,601.00 C644.67,601.00 645.00,601.17 645.00,603.50 C645.00,605.96 644.87,606.00 637.00,606.00 L 629.00 606.00 ZM 126.14 565.00 L 99.57 565.00 C74.05,565.00 73.00,565.08 73.00,566.92 C73.00,567.97 73.56,569.06 74.25,569.35 C74.94,569.63 86.75,569.78 100.50,569.68 L 125.50 569.50 ZM 101.19 507.64 C101.21,507.59 101.24,507.53 101.27,507.49 C102.05,506.09 101.95,501.80 101.21,498.75 C101.56,499.91 101.97,501.38 102.30,502.75 C103.32,506.92 103.38,506.97 105.42,505.27 C109.07,502.23 113.00,497.91 113.00,496.94 C113.00,496.42 113.92,495.08 115.04,493.96 C115.96,493.04 116.48,492.30 116.65,491.72 C116.82,493.96 113.90,499.78 110.44,503.89 C107.47,507.42 107.49,508.08 110.89,519.74 C111.64,522.32 112.31,524.80 112.68,526.37 C112.86,527.22 112.92,527.80 112.88,528.18 C112.61,528.39 111.88,528.58 110.81,528.71 C109.74,528.59 108.06,528.43 106.46,528.28 C100.69,527.75 99.37,525.25 102.56,520.92 C105.29,517.21 105.59,516.00 103.74,516.00 C102.80,516.00 101.82,514.14 101.29,512.10 C101.16,510.79 101.08,509.68 101.11,509.25 C101.14,508.70 101.17,508.17 101.19,507.64 ZM 124.50 552.50 L 100.10 552.68 C81.63,552.82 75.51,553.17 74.92,554.14 C74.48,554.83 74.35,555.76 74.62,556.20 C74.90,556.64 86.37,557.00 100.13,557.00 L 125.14 557.00 ZM 231.25 549.78 C228.59,548.50 228.51,547.64 230.52,541.95 C232.00,537.76 231.50,536.07 228.78,536.02 C228.39,536.01 228.32,535.33 228.64,534.50 C228.97,533.64 230.46,533.00 232.16,533.00 C236.40,533.00 244.00,535.06 244.00,536.21 C244.00,538.13 240.74,548.52 239.76,549.75 C238.55,551.26 234.34,551.27 231.25,549.78 ZM 126.00 561.00 C126.00,559.05 125.33,559.00 99.50,559.00 C73.67,559.00 73.00,559.05 73.00,561.00 C73.00,562.95 73.67,563.00 99.50,563.00 C125.33,563.00 126.00,562.95 126.00,561.00 ZM 122.00 549.70 C122.00,546.38 119.72,546.00 100.00,546.00 C80.28,546.00 78.00,546.38 78.00,549.70 C78.00,550.73 82.62,551.00 100.00,551.00 C117.38,551.00 122.00,550.73 122.00,549.70 ZM 124.02 574.48 C124.72,573.64 125.09,572.76 124.86,572.53 C124.14,571.81 75.00,571.46 75.00,572.17 C75.00,575.91 75.56,576.00 99.48,576.00 C119.11,576.00 122.95,575.76 124.02,574.48 ZM 757.00 579.00 L 763.00 579.00 L 763.00 606.00 L 757.00 606.00 ZM 82.00 468.74 C82.00,469.62 82.27,470.06 82.60,469.73 C83.63,468.70 81.05,462.39 78.72,460.27 C77.50,459.16 74.70,457.68 72.50,456.99 C57.36,452.23 51.02,444.39 50.82,430.20 C50.79,428.02 50.38,425.63 49.90,424.87 C48.51,422.67 48.85,432.86 50.36,438.50 C54.33,453.35 60.02,459.51 70.83,460.64 C76.08,461.19 77.46,461.75 79.53,464.22 C80.89,465.83 82.00,467.87 82.00,468.74 ZM 120.50 580.00 C122.30,578.01 122.25,578.00 100.00,578.00 C77.75,578.00 77.70,578.01 79.50,580.00 C81.19,581.86 82.58,582.00 100.00,582.00 C117.42,582.00 118.81,581.86 120.50,580.00 ZM 57.67 603.33 C56.40,602.07 57.00,599.21 58.66,598.58 C62.21,597.21 67.30,596.86 67.96,597.94 C68.34,598.55 71.49,599.05 75.07,599.06 C83.64,599.10 90.11,600.02 89.43,601.11 C89.13,601.60 87.78,602.00 86.44,602.00 C85.10,602.00 84.00,602.45 84.00,603.00 C84.00,603.55 82.90,604.00 81.56,604.00 C80.22,604.00 78.84,603.55 78.50,603.00 C78.16,602.45 76.56,602.00 74.94,602.00 C73.32,602.00 72.00,602.45 72.00,603.00 C72.00,604.11 58.75,604.41 57.67,603.33 ZM 77.78 437.44 C76.56,438.30 76.04,439.00 76.63,439.00 C78.32,439.00 82.64,434.61 84.51,430.97 C86.80,426.55 85.99,421.23 82.02,414.69 C77.80,407.74 73.31,402.35 72.46,403.21 C71.26,404.40 72.74,408.18 77.97,417.26 C80.73,422.08 83.00,426.94 83.00,428.06 C83.00,430.94 80.41,435.60 77.78,437.44 ZM 116.00 543.19 C116.00,542.74 114.41,541.61 112.47,540.69 C107.99,538.55 93.43,538.37 88.59,540.40 C81.42,543.39 83.33,544.00 99.94,544.00 C108.77,544.00 116.00,543.63 116.00,543.19 ZM 109.14 587.98 C111.14,587.42 113.34,586.30 114.01,585.48 C115.09,584.18 113.35,584.00 99.92,584.00 C87.67,584.00 84.85,584.25 85.84,585.25 C89.22,588.64 101.55,590.09 109.14,587.98 ZM 125.00 528.55 C125.00,528.28 126.35,527.35 128.01,526.49 C132.26,524.30 155.50,524.72 155.50,527.00 C155.50,528.26 153.02,528.54 140.25,528.78 C131.86,528.93 125.00,528.83 125.00,528.55 ZM 234.57 424.25 C233.72,430.09 235.04,430.44 238.41,425.25 C243.42,417.56 243.95,408.67 239.22,411.62 C237.24,412.85 235.56,417.41 234.57,424.25 ZM 208.00 554.44 C207.68,554.25 207.31,554.09 206.89,553.94 L 203.50 552.08 L 212.10 552.04 C219.45,552.01 220.95,552.29 222.50,554.00 C224.29,555.98 224.25,556.00 217.40,555.96 C217.33,555.96 217.25,555.96 217.17,555.96 C214.80,555.92 212.74,555.74 211.12,555.44 C210.13,555.24 209.24,554.99 208.43,554.67 C208.27,554.60 208.13,554.52 208.00,554.44 ZM 130.00 629.50 C130.00,627.76 130.55,627.00 131.81,627.00 C133.81,627.00 146.00,630.94 146.00,631.59 C146.00,631.82 142.40,632.00 138.00,632.00 C130.13,632.00 130.00,631.96 130.00,629.50 ZM 682.58 588.56 C683.44,585.13 682.41,584.00 678.44,584.00 C675.18,584.00 675.00,584.18 675.00,587.50 C675.00,590.83 675.17,591.00 678.48,591.00 C681.34,591.00 682.07,590.56 682.58,588.56 ZM 163.22 594.00 C166.00,594.19 174.88,599.45 175.83,601.52 C176.87,603.81 175.75,606.09 174.30,604.64 C173.99,604.32 171.84,605.18 169.53,606.54 L 167.15 607.93 L 169.47 605.90 C173.81,602.08 173.90,600.40 169.90,598.20 C167.33,596.79 165.09,595.38 163.22,594.00 ZM 484.18 593.62 C484.00,592.59 483.39,590.57 482.81,589.12 L 481.77 586.50 L 480.02 590.50 C477.94,595.23 478.28,596.22 481.84,595.81 C483.81,595.58 484.42,595.01 484.18,593.62 ZM 123.00 600.00 C123.00,599.45 123.65,599.00 124.44,599.00 C125.23,599.00 126.16,599.45 126.50,600.00 C126.84,600.55 126.19,601.00 125.06,601.00 C123.93,601.00 123.00,600.55 123.00,600.00 ZM 203.26 445.02 C198.48,444.82 192.60,444.91 188.62,445.33 C192.21,444.75 196.65,444.60 201.83,444.92 C202.33,444.95 202.80,444.98 203.26,445.02 ZM 194.88 519.00 C195.36,518.89 198.75,515.78 202.50,512.00 C203.12,511.38 203.71,510.77 204.26,510.20 C199.35,515.34 195.58,519.00 194.90,519.00 C194.89,519.00 194.88,519.00 194.88,519.00 ZM 115.39 490.32 C113.54,490.11 109.82,491.02 104.94,493.12 C110.32,490.81 113.71,489.89 115.39,490.32 ZM 178.34 453.94 C177.94,451.85 178.57,450.08 180.12,448.67 C178.78,450.08 178.17,451.85 178.34,453.94 ZM 188.20 480.52 C186.79,480.48 185.90,480.89 185.62,481.73 C185.98,480.55 186.71,480.19 188.20,480.52 ZM 157.61 582.39 C158.81,581.66 160.74,582.33 163.46,584.40 C160.94,582.48 158.91,581.83 157.61,582.39 ZM 95.22 613.29 C95.41,612.69 96.05,611.95 97.00,611.00 C96.23,611.77 95.56,612.65 95.22,613.29 ZM 206.88 455.76 C205.73,455.05 203.12,455.00 195.75,455.00 C203.16,455.00 205.72,455.03 206.88,455.76 ZM 212.88 612.52 C212.22,612.45 211.76,612.39 211.54,612.35 C210.39,612.12 207.50,610.46 204.25,608.25 C207.50,610.46 210.39,612.11 211.54,612.34 C211.79,612.39 212.25,612.45 212.88,612.52 ZM 159.20 590.55 C158.73,590.06 158.32,589.58 157.96,589.10 C158.35,589.58 158.77,590.07 159.20,590.55 ZM 184.32 491.46 C183.96,495.38 183.73,499.14 183.89,500.00 C183.72,499.13 183.95,495.38 184.32,491.46 Z" fill="rgb(168,186,208)"/>
<path d="M 276.50 646.43 C255.37,643.27 222.08,636.69 183.00,627.96 C172.82,625.69 161.12,623.17 157.00,622.36 C152.88,621.55 145.68,619.97 141.00,618.85 C135.10,617.43 128.07,616.70 118.00,616.44 C101.62,616.03 95.00,615.31 95.00,613.94 C95.00,613.42 95.90,612.10 97.00,611.00 C98.92,609.08 100.33,609.00 132.16,609.00 L 165.32 609.00 L 169.53 606.54 C171.84,605.18 173.99,604.32 174.30,604.64 C175.75,606.09 176.87,603.81 175.83,601.52 C174.87,599.41 165.68,594.00 163.08,594.00 C162.00,594.00 156.00,587.26 156.00,586.05 C156.00,581.59 158.93,580.95 163.46,584.40 C165.19,585.72 172.21,589.47 179.05,592.73 C186.63,596.34 194.84,601.22 200.04,605.21 C204.73,608.80 209.91,612.02 211.54,612.35 C213.17,612.68 227.10,613.65 242.50,614.52 C257.90,615.39 271.92,616.54 273.66,617.10 C278.31,618.57 288.09,624.10 296.47,630.00 C301.80,633.75 302.85,634.10 304.66,632.76 C308.24,630.11 307.10,642.99 303.43,646.66 C300.47,649.62 297.58,649.59 276.50,646.43 ZM 71.50 611.27 C69.30,611.05 67.07,610.45 66.55,609.93 C65.96,609.35 70.09,609.00 77.42,609.00 C87.82,609.00 89.09,609.18 88.00,610.50 C86.76,611.99 81.31,612.24 71.50,611.27 ZM 356.00 595.01 C356.00,593.03 356.59,593.00 403.07,593.00 C447.37,593.00 450.13,593.10 449.81,594.75 C449.50,596.38 446.33,596.52 402.74,596.76 C356.50,597.02 356.00,597.00 356.00,595.01 ZM 876.68 596.34 C876.30,595.97 876.00,595.07 876.00,594.33 C876.00,593.24 885.01,593.00 926.07,593.00 C973.22,593.00 976.13,593.10 975.81,594.75 C975.50,596.38 972.22,596.52 926.41,596.76 C899.43,596.90 877.05,596.71 876.68,596.34 ZM 652.00 554.88 C643.29,553.48 633.01,547.88 626.93,541.24 C613.23,526.28 610.40,504.92 619.63,486.09 C624.31,476.56 630.13,470.79 639.64,466.27 C646.32,463.10 648.34,462.63 657.14,462.21 C669.34,461.62 677.41,463.52 685.85,468.98 C693.73,474.07 702.91,485.78 701.75,489.26 C701.54,489.87 696.85,491.34 691.31,492.53 L 681.26 494.67 L 677.88 490.12 C673.09,483.65 668.01,481.04 660.22,481.02 C647.97,480.98 639.57,488.14 636.93,500.85 C633.96,515.14 639.90,529.36 650.83,534.11 C661.25,538.65 673.91,534.80 678.66,525.67 C680.08,522.95 680.36,522.86 685.32,523.50 C691.12,524.24 700.91,526.57 701.74,527.40 C702.84,528.50 695.33,539.37 690.25,544.04 C684.00,549.77 675.97,553.78 668.18,555.06 C661.66,556.13 659.60,556.10 652.00,554.88 ZM 747.26 554.55 C717.68,547.82 702.66,514.64 716.45,486.47 C720.95,477.29 727.31,470.94 736.68,466.31 C743.79,462.80 744.81,462.58 755.84,462.19 C766.79,461.81 767.95,461.95 774.79,464.62 C784.39,468.36 790.56,473.14 795.73,480.83 C810.67,503.06 804.54,534.46 782.50,548.50 C772.36,554.96 759.09,557.24 747.26,554.55 ZM 767.17 534.14 C776.30,530.23 782.00,520.17 782.00,507.98 C782.00,491.46 772.58,481.00 757.71,481.00 C741.70,481.00 731.80,493.20 733.31,511.10 C733.91,518.34 737.12,525.93 741.15,529.69 C747.60,535.69 759.00,537.64 767.17,534.14 ZM 849.26 554.49 C823.82,548.96 807.88,522.33 814.53,496.46 C818.22,482.09 826.17,472.21 838.93,466.11 C846.43,462.54 846.63,462.50 859.50,462.50 L 872.50 462.50 L 880.22 466.27 C894.49,473.25 902.90,484.90 905.24,500.96 C908.88,525.98 894.36,548.24 870.31,554.51 C863.41,556.30 857.60,556.30 849.26,554.49 ZM 869.36 533.96 C874.60,531.50 878.03,528.01 881.16,522.00 C883.10,518.26 883.49,515.98 883.50,508.50 C883.50,496.88 880.42,489.79 873.32,485.09 C861.38,477.18 845.15,480.80 838.67,492.81 C834.85,499.90 833.98,510.34 836.53,518.45 C838.74,525.48 844.88,532.54 850.50,534.51 C856.41,536.58 864.27,536.35 869.36,533.96 ZM 557.88 551.12 C554.60,547.84 554.00,546.58 554.00,543.02 C554.00,539.55 554.61,538.19 557.40,535.40 C560.23,532.57 561.53,532.00 565.18,532.00 C572.44,532.00 577.02,536.05 576.96,542.44 C576.92,547.39 575.30,550.50 571.43,553.05 C566.63,556.22 562.38,555.62 557.88,551.12 ZM 356.00 508.51 L 356.00 462.94 L 369.16 463.22 L 382.31 463.50 L 393.91 493.74 C400.28,510.37 405.90,523.85 406.38,523.70 C407.12,523.46 410.85,514.21 424.40,479.00 C425.14,477.08 426.80,472.68 428.08,469.22 L 430.42 462.94 L 443.46 463.22 L 456.50 463.50 L 456.76 507.38 C456.95,539.60 456.71,551.64 455.86,552.67 C454.98,553.73 452.45,554.00 445.60,553.79 L 436.50 553.50 L 436.23 527.75 C436.09,513.59 435.59,502.00 435.12,502.00 C434.65,502.00 429.82,513.59 424.38,527.75 L 414.50 553.50 L 406.16 553.50 L 397.82 553.50 L 388.15 528.50 C382.83,514.75 378.04,502.83 377.49,502.00 C376.82,500.98 376.34,508.98 376.00,527.00 L 375.50 553.50 L 365.75 553.79 L 356.00 554.07 L 356.00 508.51 ZM 473.70 553.37 C473.32,552.98 473.00,532.45 473.00,507.75 L 473.00 462.84 L 495.75 463.21 C514.64,463.53 519.35,463.90 523.50,465.42 C531.24,468.25 536.26,472.24 539.54,478.15 C542.17,482.91 542.50,484.44 542.49,492.00 C542.48,498.78 542.04,501.32 540.31,504.57 C537.92,509.06 531.40,515.42 528.11,516.46 C526.95,516.83 526.00,517.57 526.00,518.11 C526.00,518.65 530.45,526.69 535.90,535.98 C541.34,545.27 545.54,553.12 545.23,553.43 C544.92,553.75 539.84,554.00 533.93,554.00 L 523.19 554.00 L 514.33 538.25 L 505.47 522.50 L 499.76 522.20 L 494.05 521.90 L 493.78 537.70 L 493.50 553.50 L 483.95 553.78 C478.70,553.94 474.09,553.75 473.70,553.37 ZM 515.75 503.38 C517.26,502.27 519.36,499.64 520.41,497.52 C522.15,494.02 522.19,493.30 520.91,489.67 C518.61,483.16 515.56,481.63 503.97,481.17 L 494.00 480.77 L 494.00 492.72 C494.00,499.29 494.34,505.01 494.75,505.43 C495.16,505.86 499.44,506.02 504.25,505.79 C510.99,505.48 513.64,504.92 515.75,503.38 ZM 918.68 553.35 C918.31,552.97 918.00,532.49 918.00,507.83 L 918.00 463.00 L 928.49 463.00 L 938.98 463.00 L 939.24 499.25 L 939.50 535.50 L 958.79 535.77 L 978.08 536.04 L 977.79 544.77 L 977.50 553.50 L 948.43 553.76 C932.44,553.91 919.06,553.72 918.68,553.35 ZM 66.49 527.63 C59.43,522.85 57.63,520.61 58.40,517.54 C59.29,514.01 62.18,514.28 66.75,518.32 C68.81,520.15 72.30,522.96 74.50,524.56 C81.12,529.41 81.29,531.00 75.18,531.00 C72.62,531.00 69.93,529.95 66.49,527.63 ZM 76.82 522.14 C64.78,512.49 61.00,508.58 61.00,505.78 C61.00,502.94 63.15,500.66 65.35,501.17 C66.90,501.53 89.27,521.61 89.85,523.18 C90.32,524.43 87.03,528.00 85.41,528.00 C84.71,528.00 80.84,525.36 76.82,522.14 ZM 87.43 515.24 C76.22,506.50 67.02,497.58 67.01,495.46 C66.99,492.35 75.00,482.00 77.42,482.00 C79.56,482.00 97.00,498.55 97.00,500.57 C97.00,501.74 93.82,505.00 92.69,505.00 C92.34,505.00 88.39,501.85 83.93,498.00 C79.47,494.15 75.41,491.00 74.91,491.00 C74.41,491.00 74.00,491.81 74.00,492.80 C74.00,494.44 81.04,500.83 92.71,509.80 C97.11,513.18 98.21,516.39 95.80,518.80 C94.12,520.48 94.17,520.51 87.43,515.24 ZM 189.16 510.25 C186.42,505.44 184.05,500.83 183.89,500.00 C183.56,498.24 184.87,484.28 185.61,481.79 C186.21,479.73 190.25,480.19 196.63,483.04 C198.89,484.06 203.84,485.87 207.63,487.06 C211.41,488.26 215.54,489.88 216.81,490.68 L 219.13 492.13 L 213.48 498.57 C210.37,502.10 208.19,505.00 208.64,505.00 C209.08,505.00 206.32,508.15 202.50,512.00 C198.68,515.85 195.24,519.00 194.85,519.00 C194.47,519.00 191.91,515.06 189.16,510.25 ZM 102.30 502.75 C101.73,500.41 100.96,497.78 100.58,496.90 C100.06,495.66 101.07,494.79 104.94,493.12 C114.47,489.02 119.56,489.44 115.04,493.96 C113.92,495.08 113.00,496.42 113.00,496.94 C113.00,497.91 109.07,502.23 105.42,505.27 C103.38,506.97 103.32,506.92 102.30,502.75 ZM 82.00 468.74 C82.00,467.87 80.89,465.83 79.53,464.22 C77.46,461.75 76.08,461.19 70.83,460.64 C60.02,459.51 54.33,453.35 50.36,438.50 C48.85,432.86 48.51,422.67 49.90,424.87 C50.38,425.63 50.79,428.02 50.82,430.20 C51.02,444.39 57.36,452.23 72.50,456.99 C74.70,457.68 77.50,459.16 78.72,460.27 C81.05,462.39 83.63,468.70 82.60,469.73 C82.27,470.06 82.00,469.62 82.00,468.74 ZM 181.61 463.23 C182.21,462.83 183.02,460.81 183.40,458.75 L 184.09 455.00 L 195.58 455.00 C206.52,455.00 207.10,455.11 207.88,457.21 C208.81,459.73 208.22,463.00 206.84,463.00 C206.33,463.00 205.14,461.64 204.20,459.98 C202.53,457.01 202.36,456.96 195.50,457.23 C188.93,457.48 188.49,457.64 188.38,459.86 C188.32,461.16 187.64,462.61 186.88,463.09 C185.21,464.15 180.02,464.29 181.61,463.23 ZM 174.60 455.16 C173.17,452.90 172.00,450.36 172.00,449.52 C172.00,448.68 171.60,448.00 171.11,448.00 C169.22,448.00 163.15,422.38 164.71,420.96 C165.14,420.57 171.35,419.26 178.50,418.05 C185.65,416.84 196.68,414.73 203.00,413.37 C209.32,412.00 215.13,410.79 215.90,410.69 C217.92,410.41 220.91,423.36 221.67,435.72 C222.18,444.09 221.98,446.75 220.56,450.48 C217.41,458.73 214.00,460.40 214.00,453.69 C214.00,446.60 212.60,445.59 201.83,444.92 C185.97,443.93 177.03,447.39 178.35,454.01 C178.64,455.43 178.49,457.20 178.04,457.94 C177.43,458.93 176.52,458.20 174.60,455.16 ZM 77.78 437.44 C80.41,435.60 83.00,430.94 83.00,428.06 C83.00,426.94 80.73,422.08 77.97,417.26 C72.74,408.18 71.26,404.40 72.46,403.21 C73.31,402.35 77.80,407.74 82.02,414.69 C85.99,421.23 86.80,426.55 84.51,430.97 C82.64,434.61 78.32,439.00 76.63,439.00 C76.04,439.00 76.56,438.30 77.78,437.44 ZM 234.57 424.25 C235.56,417.41 237.24,412.85 239.22,411.62 C243.95,408.67 243.42,417.56 238.41,425.25 C235.04,430.44 233.72,430.09 234.57,424.25 Z" fill="rgb(246,250,250)"/>
</g>
</svg>